<?xml version="1.0" encoding="UTF-8" standalone="no"?>
<!-- Created with Inkscape (http://www.inkscape.org/) -->

<svg
   xmlns:dc="http://purl.org/dc/elements/1.1/"
   xmlns:cc="http://creativecommons.org/ns#"
   xmlns:rdf="http://www.w3.org/1999/02/22-rdf-syntax-ns#"
   xmlns:svg="http://www.w3.org/2000/svg"
   xmlns="http://www.w3.org/2000/svg"
   xmlns:sodipodi="http://sodipodi.sourceforge.net/DTD/sodipodi-0.dtd"
   xmlns:inkscape="http://www.inkscape.org/namespaces/inkscape"
   id="svg2"
   version="1.1"
   inkscape:version="0.91 r13725"
   xml:space="preserve"
   width="48.549999"
   height="70.824997"
   viewBox="0 0 48.549999 70.824997"
   sodipodi:docname="DTU_3_RGB.svg"><metadata
     id="metadata8"><rdf:RDF><cc:Work
         rdf:about=""><dc:format>image/svg+xml</dc:format><dc:type
           rdf:resource="http://purl.org/dc/dcmitype/StillImage" /><dc:title></dc:title></cc:Work></rdf:RDF></metadata><defs
     id="defs6" /><sodipodi:namedview
     pagecolor="#ffffff"
     bordercolor="#666666"
     borderopacity="1"
     objecttolerance="10"
     gridtolerance="10"
     guidetolerance="10"
     inkscape:pageopacity="0"
     inkscape:pageshadow="2"
     inkscape:window-width="1855"
     inkscape:window-height="1056"
     id="namedview4"
     showgrid="false"
     inkscape:zoom="3.3321569"
     inkscape:cx="-6.4858571"
     inkscape:cy="35.412498"
     inkscape:window-x="1985"
     inkscape:window-y="24"
     inkscape:window-maximized="1"
     inkscape:current-layer="g10" /><g
     id="g10"
     inkscape:groupmode="layer"
     inkscape:label="ink_ext_XXXXXX"
     transform="matrix(1.25,0,0,-1.25,0,70.825)"><g
       id="g12"
       transform="scale(0.1,0.1)"><path
         d="m 25.0117,566.609 c -1.5429,0 -2.4922,-0.468 -3.1758,-1.152 -0.6836,-0.684 -1.1328,-1.621 -1.1328,-3.172 l 0,-197.121 c 0,-1.547 0.4492,-2.488 1.1328,-3.172 0.6836,-0.679 1.6329,-1.137 3.1758,-1.137 l 51.5625,0 c 20.0274,0 32.2418,4.551 39.6558,14.141 10.918,13.09 11.27,34.219 11.27,66.613 l 0,44.231 c 0,32.398 -0.352,53.531 -11.27,66.621 -7.414,9.594 -19.6284,14.148 -39.6558,14.148 l -51.5625,0 z m 28.4063,-24.062 18.164,0 c 8.0469,0 12.8321,-1.309 16.543,-5.762 5.7227,-6.859 6.2227,-20.726 6.2227,-48.683 l 0,-48.747 c 0,-27.964 -0.5,-41.828 -6.2227,-48.695 -3.7109,-4.449 -8.4961,-5.754 -16.543,-5.754 l -18.164,0 0,157.641 z m 313.184,19.738 c 0,1.551 -0.469,2.488 -1.153,3.172 -0.676,0.684 -1.621,1.152 -3.164,1.152 l -24.101,0 c -1.543,0 -2.493,-0.468 -3.164,-1.152 -0.684,-0.684 -1.153,-1.621 -1.153,-3.172 l 0,-145.527 c 0,-15.192 -1.152,-24.215 -6.074,-29.633 -3.352,-3.68 -8.086,-5.469 -14.727,-5.469 -6.015,0 -10.578,1.664 -14.062,5.496 -4.668,5.137 -6.094,13.868 -6.094,29.606 l 0,145.527 c 0,1.551 -0.461,2.488 -1.14,3.172 -0.684,0.684 -1.633,1.152 -3.184,1.152 l -24.082,0 c -1.555,0 -2.492,-0.468 -3.176,-1.152 -0.691,-0.684 -1.14,-1.621 -1.14,-3.172 l 0,-145.57 c 0,-21.192 2.878,-34.481 11.296,-43.738 8.75,-9.629 21.973,-14.731 42.012,-14.731 20.274,0 33.32,5.426 41.348,14.75 9.433,10.969 11.758,24.039 11.758,43.719 l 0,145.57 z M 211.008,365.164 c 0,-1.547 -0.461,-2.488 -1.145,-3.172 -0.683,-0.679 -1.621,-1.137 -3.164,-1.137 l -26.367,0 c -1.543,0 -2.488,0.458 -3.164,1.137 -0.691,0.684 -1.145,1.625 -1.145,3.172 l 0,175.438 -30.964,0 c -1.551,0 -2.481,0.457 -3.172,1.14 -0.696,0.68 -1.145,1.625 -1.145,3.168 l 0,17.375 c 0,1.551 0.449,2.488 1.145,3.172 0.691,0.684 1.621,1.152 3.172,1.152 l 96.914,0 c 1.543,0 2.492,-0.468 3.172,-1.152 0.675,-0.684 1.144,-1.621 1.144,-3.172 l 0,-17.375 c 0,-1.543 -0.469,-2.488 -1.144,-3.168 -0.68,-0.683 -1.629,-1.14 -3.172,-1.14 l -30.965,0 0,-175.438"
         style="fill:#848182;fill-opacity:1;fill-rule:nonzero;stroke:none"
         id="path14"
         inkscape:connector-curvature="0" /><path
         d="m 388.43,257.883 -82.668,-43.379 c -107.032,41.629 -116.055,41.629 -223.1057,0 L 0,257.883 82.6563,301.289 c 107.0507,-41.652 116.0737,-41.652 223.1057,0 l 82.668,-43.406 z m 0,-107.25 -82.668,-43.387 c -107.032,41.633 -116.055,41.633 -223.1057,0 L 0,150.633 82.6563,194.031 c 107.0507,-41.64 116.0737,-41.64 223.1057,0 l 82.668,-43.398 z m 0,-107.2463 L 305.762,0 C 198.73,41.6328 189.707,41.6328 82.6563,0 L 0,43.3867 82.6563,86.7656 C 189.707,45.1367 198.73,45.1367 305.762,86.7656 L 388.43,43.3867"
         style="fill:#971a1f;fill-opacity:1;fill-rule:nonzero;stroke:none"
         id="path16"
         inkscape:connector-curvature="0" /></g></g></svg>